/* XPM */
static char * ban_xpm[] = {
"16 16 19 1",
" 	c None",
".	c #D60008",
"+	c #DE0000",
"@	c #D60000",
"#	c #E70000",
"$	c #D60800",
"%	c #CE0010",
"&	c #EF0000",
"*	c #DE0008",
"=	c #DE0010",
"-	c #DE0018",
";	c #EF0008",
">	c #CE0008",
",	c #CE0000",
"'	c #C60018",
")	c #D61000",
"!	c #F70000",
"~	c #F70010",
"{	c #E70010",
"     .+@#$%     ",
"   ..&*=-;>&*   ",
"  &+&=    *#&,  ",
" '+)!      *#&* ",
" =&!~>     >*#& ",
".&= >,{   ** *>%",
"+*   {,> *>   ;$",
"@=    >&**    -#",
"#-     *&>    =@",
"$;    **>,{   *+",
"%>*  *>  {,> =&.",
" &# *>    >~!&= ",
" *&#>      !)+' ",
"  ,&#*    =&+&  ",
"   *&>;-=*&='   ",
"     %$#@+.     "};
