/* XPM */
static char * chat_xpm[] = {
"16 16 86 1",
" 	c #000000000000",
".	c #108400000000",
"X	c #084200000000",
"o	c #000000000842",
"O	c #000008420000",
"+	c #000000001084",
"@	c #FFFFD6B4AD6A",
"#	c #BDEE9CE6739C",
"$	c #C6309CE66B5A",
"%	c #000008420842",
"&	c #108408420000",
"*	c #108408421084",
"=	c #18C610840000",
"-	c #108410841084",
";	c #1084108418C6",
":	c #084208421084",
">	c #084210841084",
",	c #084210840842",
"<	c #FFFFD6B494A4",
"1	c #EF7AC63094A4",
"2	c #CE72A5285AD6",
"3	c #2108108418C6",
"4	c #108408420842",
"5	c #084208420842",
"6	c #F7BCC63094A4",
"7	c #210800000000",
"8	c #BDEE9CE66318",
"9	c #0842084218C6",
"0	c #CE72CE72DEF6",
"q	c #D6B4D6B4EF7A",
"w	c #D6B4D6B4E738",
"e	c #7BDE7BDE8C62",
"r	c #FFFFDEF6AD6A",
"t	c #108418C61084",
"y	c #000008421084",
"u	c #C630C630F7BC",
"i	c #FFFFFFFFFFFF",
"p	c #F7BCF7BCFFFF",
"a	c #8C628C6294A4",
"s	c #F7BCCE729CE6",
"d	c #F7BCCE72BDEE",
"f	c #CE72A5286B5A",
"g	c #CE72D6B4EF7A",
"h	c #CE72CE72E738",
"j	c #84207BDE8C62",
"k	c #FFFFCE729CE6",
"l	c #C63094A45294",
"z	c #842084208C62",
"x	c #FFFFCE72A528",
"c	c #CE7294A45AD6",
"v	c #D6B4D6B4F7BC",
"b	c #FFFFFFFFF7BC",
"n	c #D6B4CE72E738",
"m	c #8420842094A4",
"M	c #FFFFC6309CE6",
"N	c #BDEEA5287BDE",
"B	c #CE72CE72EF7A",
"V	c #FFFFC63094A4",
"C	c #B5ACA528739C",
"Z	c #DEF6DEF6EF7A",
"A	c #FFFFCE72B5AC",
"S	c #294A00000000",
"D	c #CE72CE72F7BC",
"F	c #739C739C8420",
"G	c #EF7ACE7294A4",
"H	c #C63094A47BDE",
"J	c #084208420000",
"K	c #CE72CE72FFFF",
"L	c #8C628C629CE6",
"P	c #421042104A52",
"I	c #FFFFDEF69CE6",
"U	c #C6309CE67BDE",
"Y	c #739C6B5A8420",
"T	c #CE72C630FFFF",
"R	c #FFFFF7BCFFFF",
"E	c #6B5A6B5A6B5A",
"W	c #EF7ACE72A528",
"Q	c #18C600000000",
"!	c #DEF6D6B4FFFF",
"~	c #CE72C630EF7A",
"^	c #39CE39CE4210",
"/	c #B5AC9CE66B5A",
"(	c #B5AC9CE68420",
")	c #1084084218C6",
"_	c #108410842108",
"`	c #108410840842",
" .X.oO++ o o   o",
" @#$%&*=-;:>-,- ",
"X<12 34.+o+o55- ",
"X678 -590q0we - ",
" r.# tyuipiiwa  ",
" sdf  +giiiihj5 ",
" kslXXhi i +iqz ",
"XxscX vpbbiiinm ",
" xMN +Bi  i +0z ",
" kVCX Zibbiiiha ",
"+AS.o+Di i o+hF ",
" GH.JoKiiiiiwLP ",
" IU  YTiiRRwzE5 ",
" WQowB!~wnwm^ , ",
" /( >>),:_9;>`>o",
"oQ.%+         o+"};
