/* XPM */
static char * connect_xpm[] = {
"16 16 39 1",
" 	c None",
".	c #949494",
"+	c #8C8C8C",
"@	c #8C948C",
"#	c #848484",
"$	c #314252",
"%	c #424A52",
"&	c #424242",
"*	c #009CFF",
"=	c #188CDE",
"-	c #184A6B",
";	c #218CD6",
">	c #214A73",
",	c #313952",
"'	c #4A4A5A",
")	c #948484",
"!	c #7B8C7B",
"~	c #394A5A",
"{	c #84847B",
"]	c #0884E7",
"^	c #10A5FF",
"/	c #42424A",
"(	c #424252",
"_	c #109CFF",
":	c #00A5FF",
"<	c #29394A",
"[	c #A58C7B",
"}	c #6B8C94",
"|	c #8C8C94",
"1	c #1094F7",
"2	c #0094FF",
"3	c #394252",
"4	c #8C848C",
"5	c #7B8C94",
"6	c #9C8C8C",
"7	c #109CF7",
"8	c #84848C",
"9	c #313139",
"0	c #4A4A52",
"                ",
"     .          ",
"      +    @    ",
"       #$%+     ",
"       &*=-     ",
"       &*;>     ",
"       +,')     ",
"      +    !    ",
"     #     .    ",
"  ~,+       {   ",
" ~]^~       +/( ",
" ,_:<[}|    /12&",
" |3$    4+56/7*&",
"+           890 ",
"           +    ",
"                "};
