/* XPM */
static char * dl_xpm[] = {
"16 16 63 1",
" 	c None",
".	c #000000",
"+	c #080000",
"@	c #F7F7F7",
"#	c #F7FFFF",
"$	c #080808",
"%	c #FFFFF7",
"&	c #F7F7EF",
"*	c #F7E7EF",
"=	c #EFF7F7",
"-	c #E7F7EF",
";	c #E7E7E7",
">	c #E7C6C6",
",	c #FFEFF7",
"'	c #EFEFF7",
")	c #DEEFDE",
"!	c #FFEFEF",
"~	c #EFEFEF",
"{	c #E7EFE7",
"]	c #F7DEEF",
"^	c #EFFFF7",
"/	c #FFDED6",
"(	c #BDBDBD",
"_	c #EFF7EF",
":	c #FFEFFF",
"<	c #E7EFEF",
"[	c #AD2129",
"}	c #F7EFF7",
"|	c #FFF7EF",
"1	c #C60000",
"2	c #EFF7E7",
"3	c #F7E7CE",
"4	c #EF0008",
"5	c #D6FFEF",
"6	c #FFE7DE",
"7	c #630810",
"8	c #E70000",
"9	c #B51018",
"0	c #DEFFEF",
"a	c #B5C6C6",
"b	c #FFE7EF",
"c	c #CE0008",
"d	c #000800",
"e	c #FFF7FF",
"f	c #E7FFE7",
"g	c #C60821",
"h	c #FFF7E7",
"i	c #B5B5BD",
"j	c #EFE7EF",
"k	c #EFF7FF",
"l	c #EFEFDE",
"m	c #CEBDC6",
"n	c #EFEFFF",
"o	c #E7EFF7",
"p	c #E7FFFF",
"q	c #F7EFEF",
"r	c #B5C6BD",
"s	c #EFDEE7",
"t	c #000008",
"u	c #B5ADB5",
"v	c #ADC6BD",
"w	c #C6BDBD",
"x	c #BDBDC6",
" .....+....     ",
" .@#######.$    ",
" .%&*@=-;@.>.   ",
" .@@,')!@~....  ",
" .%{]@^/~@@;(.  ",
" .#_:<)[@@~@(.  ",
" .%-}<|1~~@~(.  ",
" .#^'234@~~@(.  ",
" +#567484960a.  ",
" +#b2/cc9>6<a+  ",
" de}_f/g6h&-i+  ",
" d#jk_l60{-<m.  ",
" .#n}je5opq|r.  ",
" +#pk,)j}jbsit  ",
" .euvrww(wuxx.  ",
" +........$..t  "};
