/* XPM */
static char * edituser_xpm[] = {
"16 16 8 1",
" 	c None",
".	c #108410841084",
"X	c #000000000000",
"o	c #210821082108",
"O	c #AD6AAD6AAD6A",
"+	c #EF7AEF7AEF7A",
"@	c #DEF6DEF6DEF6",
"#	c #529452945294",
"     ..X        ",
"    oO+OX       ",
"    .++@X       ",
"    XO@OX       ",
"   XOXXXXX      ",
"   X##OOOOX     ",
"   X####ooX     ",
"   X####ooX     ",
"   X####ooX     ",
"    X###ooX     ",
"    X##ooX      ",
"    X##ooX      ",
"    X##ooX      ",
"    X##ooX##    ",
"    XX#ooX###   ",
"      XXX####   "};
