/* XPM */
static char * files_xpm[] = {
"16 16 14 1",
" 	c None",
".	c #000000",
"+	c #080808",
"@	c #101010",
"#	c #EFEFEF",
"$	c #CECECE",
"%	c #F7F7F7",
"&	c #E7E7E7",
"*	c #BDBDBD",
"=	c #B5B5B5",
"-	c #D6D6D6",
";	c #C6C6C6",
">	c #ADADAD",
",	c #A5A5A5",
" .+........     ",
" @#$$$$$$$..    ",
" .$%##%#&%.$.   ",
" .$#%#%%%#....  ",
" .$#%##%#%%&*.  ",
" .$%#%#%%%#%*.  ",
" .$%#%####%#*.  ",
" .$#%#%#%##%*.  ",
" .$%########*.  ",
" .$%##%##%%#*.  ",
" .$%#%##%###*.  ",
" .$%%%#%###%*.  ",
" .$&#&%##%##=.  ",
" .$%%%#####%*.  ",
" +-;**>****;,+  ",
" .+...+.....@.  "};
