/* XPM */
static char * ignore_xpm[] = {
"16 16 47 1",
" 	c None",
".	c #080000",
"+	c #100000",
"@	c #000000",
"#	c #000008",
"$	c #F7CEAD",
"%	c #EFC6A5",
"&	c #FFD6B5",
"*	c #F7D6AD",
"=	c #F7D6B5",
"-	c #EFC69C",
";	c #F7CE94",
">	c #F7D6A5",
",	c #E7D6B5",
"'	c #F7CEA5",
")	c #FFD6A5",
"!	c #FFCE9C",
"~	c #FFC68C",
"{	c #FFD694",
"]	c #FFD6BD",
"^	c #634A39",
"/	c #734A31",
"(	c #EFCEB5",
"_	c #F7CE9C",
":	c #FFCE94",
"<	c #FFCE8C",
"[	c #FFC684",
"}	c #FFD69C",
"|	c #EFCE9C",
"1	c #F7C69C",
"2	c #FFDEAD",
"3	c #FFC694",
"4	c #F7C6A5",
"5	c #210000",
"6	c #FFD6AD",
"7	c #EFC694",
"8	c #F7C694",
"9	c #EFCEAD",
"0	c #E7CEA5",
"a	c #000800",
"b	c #FFCE84",
"c	c #F70010",
"d	c #FFCEA5",
"e	c #CE0008",
"f	c #E7CEAD",
"g	c #EFC6AD",
"h	c #FFC69C",
"   ..+..++@#..  ",
"  +$%&*=-;>,'$@ ",
"  +)!!~!{]^+/(@ ",
"  +_!:{!<[}|:1. ",
"  @233:){!45!6@ ",
"  +7!!<8:*9+'0a ",
"  .!::}!!b:)<).c",
"  +'3!8c):!d:8cc",
"  +'3!8ec_!})cc ",
"  .!::}!ec}7cc# ",
"  +7!!<8:eccc.  ",
"  @233:){fecg+  ",
"  +_!:{!<ccec#  ",
"  +)!!~!ce~!ec  ",
"  +$%&*ce$6hdec ",
"   ..+ce+@@@@ ec"};
