/* XPM */
static char * info_xpm[] = {
"16 16 2 1",
" 	c None",
".	c #30C230C2B6DA",
"     ......     ",
"   .........    ",
"  .....  .....  ",
" .....    ..... ",
" .....    ..... ",
".......  .......",
"................",
"....      ......",
"......    ......",
"......    ......",
"......    ......",
" .....    ..... ",
" ...        ... ",
"  ............  ",
"   ..........   ",
"     ......     "};
