/* XPM */
static char * kick_xpm[] = {
"16 16 19 1",
" 	c ",
".	c #D6B400000842",
"X	c #DEF600000000",
"o	c #D6B400000000",
"O	c #E73800000000",
"+	c #D6B408420000",
"@	c #CE7200001084",
"#	c #EF7A00000000",
"$	c #DEF600000842",
"%	c #DEF600001084",
"&	c #DEF6000018C6",
"*	c #EF7A00000842",
"=	c #CE7200000842",
"-	c #CE7200000000",
";	c #C630000018C6",
":	c #D6B410840000",
">	c #F7BC00000000",
",	c #F7BC00001084",
"<	c #E73800001084",
"     .XoO+@     ",
"   ..#$%&*=#$   ",
"  #X#%    $O#-  ",
" ;X:>       O#$ ",
" %#>,=       O# ",
".#% =-<      $=@",
"X$   <-=      *+",
"o%    =#$     &O",
"O&     $#=    %o",
"+*      =-<   $X",
"@=$      <-= %#.",
" #O       =,>#% ",
" $#O       >:X; ",
"  -#O$    %#X#  ",
"   $#=*&%$#%;   ",
"     @+OoX.     "};
