/* XPM */
static char * mkdir_xpm[] = {
"16 16 58 1",
" 	c None",
".	c #000000",
"+	c #424A4A",
"@	c #9C94EF",
"#	c #A59CFF",
"$	c #000800",
"%	c #000008",
"&	c #CEC6FF",
"*	c #39394A",
"=	c #424252",
"-	c #AD9CFF",
";	c #9C9CEF",
">	c #CECEFF",
",	c #000010",
"'	c #CECEEF",
")	c #D6CEFF",
"!	c #424239",
"~	c #A59CF7",
"{	c #9C94FF",
"]	c #9C9CFF",
"^	c #C6C6FF",
"/	c #D6D6FF",
"(	c #C6BDFF",
"_	c #D6D6F7",
":	c #CECEF7",
"<	c #394252",
"[	c #39426B",
"}	c #CED6E7",
"|	c #CED6EF",
"1	c #000029",
"2	c #A59CE7",
"3	c #CED6F7",
"4	c #A59CEF",
"5	c #000018",
"6	c #736BB5",
"7	c #CECEE7",
"8	c #C6CEFF",
"9	c #6B6BC6",
"0	c #CED6FF",
"a	c #8473DE",
"b	c #001010",
"c	c #6B6BBD",
"d	c #6B63AD",
"e	c #9C8CFF",
"f	c #A5A5FF",
"g	c #6B63BD",
"h	c #000808",
"i	c #6363A5",
"j	c #6B63CE",
"k	c #7B7B7B",
"l	c #9494D6",
"m	c #7363C6",
"n	c #737373",
"o	c #736BBD",
"p	c #000021",
"q	c #000031",
"r	c #7B7B6B",
"s	c #7B7B73",
"  ..            ",
".+@#.$  %.      ",
"%&*=-@..;>.%    ",
",')>!+~#{]^;,   ",
"%>>/(>=!]{#@.   ",
"._&>/::_<[@#%   ",
".}>/:>^>|>12$   ",
",/>>>>>3>456.   ",
".7>8>>8>>#,9.   ",
"1:>)>::>0abc.   ",
".de&>0>:3f.gh   ",
" .,d#>:>8{%g.   ",
"   $.i~>)e,j%k  ",
"     $,al#,m.nk ",
"       .5o.6.kk ",
"         p$qrs  "};
