/* XPM */
static char * msg_xpm[] = {
"16 16 90 1",
" 	c #000000000000",
".	c #108400000000",
"X	c #084200000000",
"o	c #000000000842",
"O	c #000008420000",
"+	c #000000001084",
"@	c #FFFFD6B4AD6A",
"#	c #BDEE9CE6739C",
"$	c #C6309CE66B5A",
"%	c #000008420842",
"&	c #108408420000",
"*	c #108408421084",
"=	c #18C610840000",
"-	c #18C618C618C6",
";	c #084208421084",
":	c #1084108418C6",
">	c #108410841084",
",	c #108410840842",
"<	c #084208420842",
"1	c #FFFFD6B494A4",
"2	c #EF7AC63094A4",
"3	c #CE72A5285AD6",
"4	c #2108108418C6",
"5	c #108408420842",
"6	c #18C621082108",
"7	c #F7BCC63094A4",
"8	c #210800000000",
"9	c #BDEE9CE66318",
"0	c #0842084218C6",
"q	c #D6B4D6B4E738",
"w	c #CE72CE72E738",
"e	c #DEF6DEF6EF7A",
"r	c #7BDE7BDE8420",
"t	c #FFFFDEF6AD6A",
"y	c #108418C61084",
"u	c #000008421084",
"i	c #C630C630F7BC",
"p	c #FFFFFFFFFFFF",
"a	c #CE72CE72DEF6",
"s	c #842084208C62",
"d	c #F7BCCE729CE6",
"f	c #F7BCCE72BDEE",
"g	c #CE72A5286B5A",
"h	c #CE72D6B4EF7A",
"j	c #F7BCF7BCFFFF",
"k	c #E738DEF6F7BC",
"l	c #7BDE7BDE8C62",
"z	c #FFFFCE729CE6",
"x	c #C63094A45294",
"c	c #FFFFF7BCFFFF",
"v	c #D6B4CE72E738",
"b	c #FFFFCE72A528",
"n	c #CE7294A45AD6",
"m	c #D6B4D6B4F7BC",
"M	c #FFFFFFFFF7BC",
"N	c #8420842094A4",
"B	c #FFFFC6309CE6",
"V	c #BDEEA5287BDE",
"C	c #CE72CE72EF7A",
"Z	c #8C628C6294A4",
"A	c #FFFFC63094A4",
"S	c #B5ACA528739C",
"D	c #FFFFCE72B5AC",
"F	c #294A00000000",
"G	c #CE72CE72F7BC",
"H	c #739C739C8420",
"J	c #EF7ACE7294A4",
"K	c #C63094A47BDE",
"L	c #084208420000",
"P	c #CE72CE72FFFF",
"I	c #421042104A52",
"U	c #FFFFDEF69CE6",
"Y	c #C6309CE67BDE",
"T	c #739C6B5A8420",
"R	c #CE72C630FFFF",
"E	c #EF7AEF7AFFFF",
"W	c #E738E738F7BC",
"Q	c #739C739C739C",
"!	c #EF7ACE72A528",
"~	c #18C600000000",
"^	c #DEF6D6B4FFFF",
"/	c #CE72C630EF7A",
"(	c #8C628C629CE6",
")	c #421042104210",
"_	c #B5AC9CE66B5A",
"`	c #B5AC9CE68420",
"'	c #084210841084",
"]	c #1084084218C6",
"[	c #084210840842",
"{	c #108410842108",
" .X.oO++       o",
" @#$%&*=-;:;>,<o",
"X123 45.o+oo< 6 ",
"X789 ><0qqwer;< ",
" t.# yuippppaso ",
" dfg  +hp ojklo ",
" zdxXXwpp  pcvs ",
"XbdnX mjM  ppqN ",
" bBV +CpM  ppqZ ",
" zASX epMpMppws ",
"+DF.o+Gpp <ppqH ",
" JK.LoPppo+jqNI ",
" UY  TRpppEWlQ  ",
" !~oqC^/aqv() < ",
" _` ''][:;{;>>> ",
"o~.%+         o+"};
