/* XPM */
static char * news_xpm[] = {
"16 16 16 1",
" 	c None",
".	c #000000",
"+	c #FFFFFF",
"@	c #B0B0B0",
"#	c #080808",
"$	c #8F8F8F",
"%	c #848484",
"&	c #CECECE",
"*	c #AEAEAE",
"=	c #1A1A1A",
"-	c #D6D6D6",
";	c #7E7E7E",
">	c #F7F7F7",
",	c #8C8C8C",
"'	c #C9C9C9",
")	c #C6C6C6",
"       ..       ",
"      .+@.      ",
"     #$.@+.     ",
"    .$.%&@@.    ",
"   .$.%&@@@*=   ",
"  .@.%-@@.&;$.  ",
" .>@,&@@.@@@.@. ",
" &.@@@@.@.$.@.+.",
" .%.@@.@.@.@.+@.",
" .$%.@@.@.@.+@@.",
" .%$$.@@.@.+@@. ",
" &..$$.@'#@@@.  ",
" .$&.$$.$+@@.   ",
"  .$).$$.@@#    ",
"   ..$.$.@.     ",
"     .....      "};
