/* XPM */
static char * newuser_xpm[] = {
"16 16 12 1",
" 	c None",
".	c ",
"+	c #111111",
"@	c #000000",
"#	c #222222",
"$	c #AAAAAA",
"%	c #EEEEEE",
"&	c #DDDDDD",
"*	c #FFFF00",
"=	c #FFCC00",
"-	c #FF9900",
";	c #555555",
".....++@........",
"....#$%$@.......",
"....+%%&@.......",
"....@$&$@.......",
"...@*@@@@@......",
"...@==****@.....",
"...@====--@.....",
"...@====--@.....",
"...@====--@.....",
"....@===--@.....",
"....@==--@......",
"....@==--@......",
"....@==--@......",
"....@==--@;;....",
"....@@=--@;;;...",
"......@@@;;;;..."};
