/* XPM */
static char * options_xpm[] = {
"16 16 15 1",
" 	c None",
".	c #8C8C8C",
"+	c #000000",
"@	c #BDBDBD",
"#	c #C6C6C6",
"$	c #848484",
"%	c #080808",
"&	c #393939",
"*	c #EFEFEF",
"=	c #7B7B7B",
"-	c #B5B5B5",
";	c #E7E7E7",
">	c #949494",
",	c #101010",
"'	c #ADADAD",
"                ",
" .++.           ",
".+@#+$          ",
"+@+%#+  +%+ %++ ",
"+#%&#+          ",
".+*#%$          ",
" $++$           ",
"                ",
" $+%=           ",
"$+@-+.          ",
"+##;>+  +,+ %++ ",
",'@.$+          ",
"$+.$+$          ",
" $++$           ",
"                ",
"                "};
