/* XPM */
static char * postnews_xpm[] = {
"16 16 30 1",
" 	c None",
".	c #000000",
"+	c #FFFFFF",
"@	c #B0B0B0",
"#	c #080808",
"$	c #8F8F8F",
"%	c #848484",
"&	c #CECECE",
"*	c #AEAEAE",
"=	c #1A1A1A",
"-	c #18A31D",
";	c #17AA1C",
">	c #18B21E",
",	c #18BA1D",
"'	c #7E7E7E",
")	c #F7F7F7",
"!	c #8C8C8C",
"~	c #16961A",
"{	c #179B1B",
"]	c #17891B",
"^	c #168C1A",
"/	c #157F19",
"(	c #168219",
"_	c #16771A",
":	c #167A19",
"<	c #167019",
"[	c #16721A",
"}	c #C9C9C9",
"|	c #146817",
"1	c #C3C5C3",
"       ..       ",
"      .+@.      ",
"     #$.@+.     ",
"    .$.%&@@.    ",
"   .......@*=   ",
"  .@.-;>,.&'$.  ",
" .)@!.-;>.@@.@. ",
" &.@.~{-;.$.@.+.",
" .%.]^~.-..@.+@.",
" ../(]....@.+@@.",
" ._:/.@@.@.+@@. ",
".<[_.$.@}#@@@.  ",
".|<..$$.$+@@.   ",
" ..$1.$$.@@#    ",
"   ..$.$.@.     ",
"     .....      "};
