/* XPM */
static char * quit_xpm[] = {
"16 16 57 1",
" 	c ",
".	c #000008420000",
"X	c #000010840000",
"o	c #000000000000",
"O	c #084200000842",
"+	c #084208420000",
"@	c #FFFF000018C6",
"#	c #DEF6000018C6",
"$	c #F7BC000018C6",
"%	c #FFFF08420842",
"&	c #F7BC00000000",
"*	c #108400000000",
"=	c #F7BC00000842",
"-	c #CE7208420000",
";	c #084200000000",
":	c #FFFFC6308420",
">	c #BDEE00000000",
",	c #B5AC00000842",
"<	c #DEF600000000",
"1	c #DEF6318C294A",
"2	c #FFFFCE72AD6A",
"3	c #FFFFCE728C62",
"4	c #F7BCC630B5AC",
"5	c #E73800000000",
"6	c #D6B400000842",
"7	c #000000001084",
"8	c #FFFFC630A528",
"9	c #8C6200000842",
"0	c #FFFFCE7294A4",
"q	c #F7BCD6B49CE6",
"w	c #D6B400000000",
"e	c #DEF600000842",
"r	c #94A400000000",
"t	c #EF7A00000000",
"y	c #FFFFD6B48420",
"u	c #FFFFCE72B5AC",
"i	c #FFFFD6B48C62",
"p	c #000000000842",
"a	c #EF7ACE728C62",
"s	c #F7BCC630A528",
"d	c #F7BCC6309CE6",
"f	c #FFFFD6B494A4",
"g	c #FFFFC6309CE6",
"h	c #EF7AD6B494A4",
"j	c #BDEE8C624A52",
"k	c #842000001084",
"l	c #FFFFCE729CE6",
"z	c #FFFFBDEEA528",
"x	c #FFFFD6B4AD6A",
"c	c #E738B5AC8420",
"v	c #18C600000000",
"b	c #FFFFB5AC9CE6",
"n	c #9CE608420842",
"m	c #EF7ACE72AD6A",
"M	c #94A400001084",
"N	c #94A400000842",
"B	c #A52800002108",
"    .Xoo..Oo    ",
"   +@#@.$%@&o   ",
"  *=-*;:o.>,=o  ",
" ;<1.2o3o4X56@* ",
"o==;7:.4+8o-<&9O",
"o@o0;4;qo2;w5ero",
"ot;youoio87-.>,.",
"o%p0oi4a0so.dor7",
";tpf3sgh:s;sj*ko",
"p&oal:l3sfzxX#>;",
"o1olhx2z0fcjv6k.",
"p&7qb8c2qzxoe5no",
" .#;uboc:m1;wMo ",
"  oeoo.;.;o<Mo  ",
"   oNMNkB9k,p   ",
"    .oovoov7    "};
