/* XPM */
static char * refresh_xpm[] = {
"16 16 59 1",
" 	c None",
".	c #000000",
"+	c #000800",
"@	c #080000",
"#	c #000008",
"$	c #F7EFFF",
"%	c #FFF7FF",
"&	c #FFFFF7",
"*	c #080008",
"=	c #080010",
"-	c #F7E7E7",
";	c #FFF7F7",
">	c #E7EFE7",
",	c #EFF7E7",
"'	c #F7EFF7",
")	c #EFDEEF",
"!	c #CEC6D6",
"~	c #E7F7DE",
"{	c #105A10",
"]	c #E7FFE7",
"^	c #E7F7EF",
"/	c #EFEFEF",
"(	c #EFF7EF",
"_	c #CEDECE",
":	c #006300",
"<	c #085208",
"[	c #CEFFCE",
"}	c #E7F7E7",
"|	c #EFEFE7",
"1	c #B5BDB5",
"2	c #D6FFD6",
"3	c #294231",
"4	c #104A18",
"5	c #006308",
"6	c #006B00",
"7	c #C6C6BD",
"8	c #DEFFE7",
"9	c #105A21",
"0	c #DEFFDE",
"a	c #DEF7D6",
"b	c #B5B5B5",
"c	c #D6F7CE",
"d	c #DEF7E7",
"e	c #EFF7F7",
"f	c #F7E7FF",
"g	c #BDB5C6",
"h	c #185221",
"i	c #BDBDBD",
"j	c #215229",
"k	c #BDB5BD",
"l	c #294A29",
"m	c #E7E7EF",
"n	c #D6EFDE",
"o	c #5A8C63",
"p	c #F7FFF7",
"q	c #B5BDA5",
"r	c #BDADAD",
"s	c #100008",
"t	c #100010",
" .+.@.#.+..     ",
" .$%%%%&%%*=    ",
" .%$-;>,')=!.   ",
" .%),-~{]^##..  ",
" .%/(_]:<[}|1.  ",
" .%(23456{~-7.  ",
" @;890a590/'b.  ",
" .%a4c,{def$g.  ",
" .&~3^}~/,h0b#  ",
" .e}(}0<(_h]i.  ",
" +;(>c{:]cjak#  ",
" @%',j<:lj0dg#  ",
" .%me~568c](g=  ",
" .%'%n2o^d(po*  ",
" ./b171qk_rki.  ",
" ..+@*s.t.@.+.  "};
