/* XPM */
static char * start_xpm[] = {
"16 16 45 1",
" 	c ",
".	c #000000000000",
"X	c #39CE42104210",
"o	c #8420108439CE",
"O	c #421039CE4210",
"+	c #5AD6000018C6",
"@	c #108408420000",
"#	c #5AD6318C4210",
"$	c #7BDE108439CE",
"%	c #6318294A4210",
"&	c #000000000842",
"*	c #000008420000",
"=	c #18C600000000",
"-	c #318C631839CE",
";	c #084200000000",
":	c #42105AD64A52",
">	c #EF7A63185294",
",	c #5AD64A524A52",
"<	c #DEF66B5A6B5A",
"1	c #A52863184A52",
"2	c #0842E7380842",
"3	c #10847BDE0000",
"4	c #2108D6B42108",
"5	c #00004A520000",
"6	c #0000E7380000",
"7	c #B5ACFFFF1084",
"8	c #1084D6B40000",
"9	c #00007BDE0000",
"0	c #CE72F7BC0000",
"q	c #F7BCFFFF8C62",
"w	c #CE72FFFF0000",
"e	c #0000A5280842",
"r	c #0000EF7A0842",
"t	c #000021080000",
"y	c #FFFFFFFF9CE6",
"u	c #EF7AFFFF7BDE",
"i	c #C630FFFF0842",
"p	c #0000294A0842",
"a	c #18C6DEF60842",
"s	c #CE72F7BC1084",
"d	c #18C6D6B41084",
"f	c #000042100000",
"g	c #0842DEF60842",
"h	c #0000EF7A0000",
"j	c #0000739C0000",
"      .X.       ",
"     . oO.      ",
"     .+Oo@      ",
"     .#$%&      ",
"      *%*       ",
"      =-.       ",
"     ;:>,.      ",
"     ;<1<+      ",
"     *,>:.      ",
"   2  3*3  4    ",
"     56785      ",
"    960qwe9     ",
"  r t7yquip r   ",
"     asysd9     ",
"     fgwg5      ",
"   h  e@j  2    "};
