/* XPM */
static char * tasks_xpm[] = {
"16 16 50 1",
" 	c ",
".	c #000008420000",
"X	c #000000000842",
"o	c #0000CE722108",
"O	c #1084BDEE39CE",
"+	c #0000CE724210",
"@	c #1084C63039CE",
"#	c #000000000000",
"$	c #084200000000",
"%	c #0000CE7239CE",
"&	c #0000000018C6",
"*	c #18C6CE724A52",
"=	c #000008420842",
"-	c #739C6318D6B4",
";	c #0842000018C6",
":	c #1084CE72318C",
">	c #000000001084",
",	c #6B5A5AD6B5AC",
"<	c #6B5A6318BDEE",
"1	c #63186B5AC630",
"2	c #6B5A6B5AA528",
"3	c #084200000842",
"4	c #0000D6B439CE",
"5	c #739C6B5A9CE6",
"6	c #739C739C94A4",
"7	c #6B5A6318CE72",
"8	c #0000D6B4318C",
"9	c #00000000318C",
"0	c #18C600000000",
"q	c #2108B5AC5AD6",
"w	c #000018C60000",
"e	c #739C5AD6D6B4",
"r	c #108400000842",
"t	c #000010840000",
"y	c #0000CE72318C",
"u	c #1084BDEE6318",
"i	c #318C739CBDEE",
"p	c #0842CE724A52",
"a	c #0842C6304210",
"s	c #0842C630294A",
"d	c #84206318DEF6",
"f	c #294ABDEE39CE",
"g	c #52946B5ABDEE",
"h	c #108400001084",
"j	c #108400000000",
"k	c #000010840842",
"l	c #6B5A6B5AC630",
"z	c #739C6318C630",
"x	c #5AD66318BDEE",
"c	c #63186318D6B4",
"      .         ",
"     Xo.        ",
"    .O+@#       ",
"   $.#%###      ",
"  &X #*=        ",
" #-;X#:.>>      ",
"=,<1234#56> #   ",
" $7&X#8#95> ##  ",
"  0. #qw#er.ty. ",
"   # tuq$i#pa+s#",
"      t#>d>.#f> ",
"        .gh j.  ",
"      #.#7>k#   ",
"       0lzx#    ",
"        >c#     ",
"         $      "};
