/* XPM */
static char * tracker_xpm[] = {
"16 16 62 1",
" 	c None",
".	c #000000",
"+	c #000010",
"@	c #000018",
"#	c #394239",
"$	c #A59CF7",
"%	c #394229",
"&	c #F7F7F7",
"*	c #EFEFEF",
"=	c #A59CFF",
"-	c #424A52",
";	c #394252",
">	c #9C94E7",
",	c #7B73BD",
"'	c #E8E0FF",
")	c #CED6EF",
"!	c #F7FFFF",
"~	c #424263",
"{	c #ADADAD",
"]	c #080808",
"^	c #000008",
"/	c #FFFFF7",
"(	c #D6D6E7",
"_	c #CECEFF",
":	c #9C8CF7",
"<	c #A594F7",
"[	c #8C8C8C",
"}	c #525A52",
"|	c #CECEEF",
"1	c #A5A5A5",
"2	c #525A5A",
"3	c #848484",
"4	c #290800",
"5	c #BD9C84",
"6	c #BDA584",
"7	c #B59C8C",
"8	c #080000",
"9	c #5A4A4A",
"0	c #635242",
"a	c #AD9C84",
"b	c #948C7B",
"c	c #634A42",
"d	c #5A4A39",
"e	c #635A4A",
"f	c #5A525A",
"g	c #525252",
"h	c #5A5A5A",
"i	c #524A4A",
"j	c #52525A",
"k	c #635A52",
"l	c #5A5239",
"m	c #000808",
"n	c #000810",
"o	c #736B73",
"p	c #212118",
"q	c #424242",
"r	c #8C8C84",
"s	c #7B7B84",
"t	c #4A525A",
"u	c #39424A",
"v	c #212929",
"w	c #6B6B73",
".+@#   .. ....  ",
".$%$+@.+%..&*.. ",
".==-;>,.*%.*&...",
".')!=#~.{*%]***.",
"^/(_!$+.{&*%.&*.",
"^:__)<^.{**[.{&.",
"@^}$|=++1&[.{**.",
" ^.^2<..{3......",
"456788....90a6b4",
"c0de9fghihjikl0c",
"........m.n.....",
"       .        ",
"      8 .       ",
"      . 8       ",
"1[oh%..^...pqjbr",
"{[stum. ^^.vujwr"};
