/* XPM */
static char * trash_xpm[] = {
"16 16 23 1",
" 	c None",
".	c #000000",
"+	c #EFEFEF",
"@	c #ADADAD",
"#	c #525252",
"$	c #080808",
"%	c #737373",
"&	c #7B7B7B",
"*	c #F7F7F7",
"=	c #DEDEDE",
"-	c #A5A5A5",
";	c #4A4A4A",
">	c #212121",
",	c #424242",
"'	c #181818",
")	c #D6D6D6",
"!	c #B5B5B5",
"~	c #5A5A5A",
"{	c #292929",
"]	c #E7E7E7",
"^	c #848484",
"/	c #6B6B6B",
"(	c #CECECE",
"      ...       ",
"     .+@#$      ",
" %........$..%  ",
" .&@+*=@-&;>>.  ",
" .............  ",
"  .%=&%,,;'>.   ",
"  .@))==@@&#.   ",
"  .!)@=~@>%>.   ",
"  .!)@=#@{%>.   ",
"  .-)-]#!'&>.   ",
"  .@)@)#->&>.   ",
"  .@)@=#!>%>.   ",
"  .-)-=#@>%>$   ",
"  .!))==@-^~.   ",
"  ./(=!@~#;>$   ",
"   .........    "};
