/* XPM */
static char * ul_xpm[] = {
"16 16 64 1",
" 	c None",
".	c #080000",
"+	c #000000",
"@	c #EFFFFF",
"#	c #F7FFFF",
"$	c #FFF7FF",
"%	c #DEF7F7",
"&	c #EFEFF7",
"*	c #F7E7EF",
"=	c #EFE7DE",
"-	c #F7EFF7",
";	c #CEC6C6",
">	c #F7F7FF",
",	c #E7E7EF",
"'	c #FFE7EF",
")	c #E7F7F7",
"!	c #DEEFEF",
"~	c #000800",
"{	c #EFE7F7",
"]	c #FFE7DE",
"^	c #DEFFEF",
"/	c #F7FFF7",
"(	c #E7EFEF",
"_	c #EFF7EF",
":	c #C6BDBD",
"<	c #DEEFDE",
"[	c #FFE7CE",
"}	c #C60821",
"|	c #FFEFDE",
"1	c #F7E7D6",
"2	c #EFF7E7",
"3	c #F7F7E7",
"4	c #C60810",
"5	c #DE0000",
"6	c #B50818",
"7	c #FFD6CE",
"8	c #ADBDBD",
"9	c #D6FFE7",
"0	c #E70000",
"a	c #F70008",
"b	c #B51821",
"c	c #B5BDC6",
"d	c #000008",
"e	c #EFEFEF",
"f	c #EFFFF7",
"g	c #BDBDBD",
"h	c #E7EFE7",
"i	c #FFF7E7",
"j	c #CE0008",
"k	c #F7F7F7",
"l	c #EFF7F7",
"m	c #D6E7E7",
"n	c #FFFFF7",
"o	c #E7F7E7",
"p	c #F7F7EF",
"q	c #FFE7F7",
"r	c #FFF7F7",
"s	c #B5B5B5",
"t	c #080008",
"u	c #DEE7DE",
"v	c #C6C6BD",
"w	c #C6C6C6",
"x	c #A5A5A5",
"y	c #080808",
" .++.++++++     ",
" +@@@#@@@$++    ",
" .@%&*@=--.;+   ",
" +@>$,'%)!..++  ",
" ~@{&&=]^/(_:+  ",
" +@-_<[}|12(:.  ",
" .#'3[4567|/8+  ",
" .@9]}50ab1^cd  ",
" +@)ef[aeeeeg+  ",
" +@h-_ijekkeg+  ",
" +@l$m<bkeeeg+  ",
" +nh*>o7eeekg+  ",
" +npq>mrekees+  ",
" +n_*-lheeekg+  ",
" tuvswscgggwxy  ",
" +++~+.+++++y+  "};
