/* XPM */
static char * up_xpm[] = {
"16 16 17 1",
" 	c None",
".	c #000000",
"+	c #07C60E",
"@	c #099E0E",
"#	c #0A930E",
"$	c #0B840F",
"%	c #0A770E",
"&	c #0A720D",
"*	c #0A6B0D",
"=	c #0A660D",
"-	c #0A600D",
";	c #0A5B0C",
">	c #08590B",
",	c #08510B",
"'	c #08470A",
")	c #08440A",
"!	c #083F0A",
"       .        ",
"      .+.       ",
"     .@@@.      ",
"    .#####.     ",
"   .$$$$$$$.    ",
"  .%%..%..%%.   ",
" .&&. .&. .&&.  ",
" .*.  .*.  .*.  ",
"  .   .=.   .   ",
"      .-.       ",
"      .;.       ",
"      .>.       ",
"      .,.       ",
"      .'.       ",
"      .).       ",
"      .!.       "};
