/* XPM */
static char * users_xpm[] = {
"16 16 47 1",
" 	c ",
".	c #084200000000",
"X	c #108400000000",
"o	c #000000000000",
"O	c #000000000842",
"+	c #F7BCCE72AD6A",
"@	c #EF7AC630A528",
"#	c #FFFFD6B4B5AC",
"$	c #F7BCD6B4AD6A",
"%	c #F7BCD6B4B5AC",
"&	c #EF7AC6309CE6",
"*	c #F7BCCE7294A4",
"=	c #F7BCD6B4A528",
"-	c #E738D6B4B5AC",
";	c #F7BCCE72A528",
":	c #FFFFD6B4A528",
">	c #FFFFCE729CE6",
",	c #FFFFC6308C62",
"<	c #FFFFD6B494A4",
"1	c #FFFFD6B4BDEE",
"2	c #63184A5239CE",
"3	c #739C4A52318C",
"4	c #EF7ACE72B5AC",
"5	c #F7BCCE729CE6",
"6	c #FFFFCE7294A4",
"7	c #FFFFCE728C62",
"8	c #FFFFC6308420",
"9	c #FFFFD6B49CE6",
"0	c #EF7ACE729CE6",
"q	c #F7BCC6309CE6",
"w	c #FFFFDEF6AD6A",
"e	c #FFFFC63094A4",
"r	c #F7BCC630A528",
"t	c #210800000000",
"y	c #FFFFD6B4AD6A",
"u	c #EF7AC63094A4",
"i	c #F7BCC63094A4",
"p	c #EF7ACE72AD6A",
"a	c #E738CE72A528",
"s	c #000008420000",
"d	c #FFFFCE728420",
"f	c #FFFFCE72A528",
"g	c #E738CE72AD6A",
"h	c #18C600000000",
"j	c #EF7AC630AD6A",
"k	c #F7BCCE72B5AC",
"l	c #FFFFC6309CE6",
"  ..X..XXoO..   ",
" X+@#$%&*=-;+o  ",
" X:>>,><12X34o  ",
" X5>6<>78906q.  ",
" owee6:<>rt>yo  ",
" Xu>>7i6$pX;as  ",
" .>669>>d6:7:.  ",
" X;e>i;:6>f6io  ",
" X;e>i;:5>9:p.  ",
" .>669>>79uXoO  ",
" Xu>>7i66i:p.   ",
" owee6:<gh;jX   ",
" X5>6<>75;h.O   ",
" X:>>,><6,>k.   ",
" X+@#$%&+ylfh   ",
"  ..X..Xoooo    "};
